<svg width="52" height="52" viewBox="0 0 52 52" fill="none" xmlns="http://www.w3.org/2000/svg">
<path d="M0 26C0 40.3373 11.6627 52 26 52C40.3373 52 52 40.3373 52 26C52 11.6627 40.3352 0 26 0C11.6648 0 0 11.6627 0 26ZM47.9721 26C47.9721 38.1139 38.1159 47.9721 26 47.9721C13.8841 47.9721 4.02787 38.1139 4.02787 26C4.02787 13.8841 13.8841 4.02787 26 4.02787C38.1159 4.02787 47.9721 13.8861 47.9721 26Z" fill="#D1D8A7"/>
<path d="M28.7793 14.5004L18.7096 24.5701C17.9282 25.3556 17.9282 26.6243 18.7096 27.4098L28.7793 37.4795C29.5325 38.126 30.6462 38.126 31.3994 37.4795C32.2433 36.7565 32.3419 35.4837 31.6189 34.6398L22.9792 26L31.619 17.3401C32.4004 16.5546 32.4004 15.2859 31.619 14.5004C30.8335 13.719 29.5647 13.719 28.7793 14.5004Z" fill="#D1D8A7"/>
</svg>
