<svg width="33" height="33" viewBox="0 0 33 33" fill="none" xmlns="http://www.w3.org/2000/svg">
<path d="M16.5 33C7.40179 33 0 25.5982 0 16.5C0 7.40179 7.40179 0 16.5 0C25.5982 0 33 7.40179 33 16.5C33 25.5982 25.5982 33 16.5 33ZM16.5 2.35707C8.70168 2.35707 2.35707 8.70168 2.35707 16.5C2.35707 24.2983 8.70168 30.6429 16.5 30.6429C24.2983 30.6429 30.6429 24.2983 30.6429 16.5C30.6429 8.70168 24.2983 2.35707 16.5 2.35707Z" fill="black"/>
<path d="M22.3929 23.5715C22.0913 23.5715 21.7897 23.4564 21.5596 23.226L9.77395 11.4404C9.31347 10.9799 9.31347 10.2342 9.77395 9.77397C10.2342 9.31373 10.9802 9.31348 11.4404 9.77397L23.226 21.5596C23.6865 22.0201 23.6865 22.7658 23.226 23.226C22.9959 23.4564 22.6945 23.5715 22.3929 23.5715Z" fill="black"/>
<path d="M10.6071 23.5715C10.3054 23.5715 10.0041 23.4564 9.77395 23.226C9.31347 22.7658 9.31347 22.0198 9.77395 21.5596L21.5596 9.77397C22.02 9.31348 22.7658 9.31348 23.226 9.77397C23.6863 10.2342 23.6865 10.9802 23.226 11.4404L11.4404 23.226C11.2103 23.4564 10.9087 23.5715 10.6071 23.5715Z" fill="black"/>
</svg>
