<svg width="55" height="55" viewBox="0 0 55 55" fill="none" xmlns="http://www.w3.org/2000/svg">
<path d="M27.5 0C12.3579 0 0 12.3588 0 27.5C0 42.6421 12.3589 55 27.5 55C42.6422 55 55 42.6412 55 27.5C55 12.3578 42.6412 0 27.5 0ZM27.5 51.7773C14.1134 51.7773 3.22266 40.8866 3.22266 27.5C3.22266 14.1134 14.1134 3.22266 27.5 3.22266C40.8866 3.22266 51.7773 14.1134 51.7773 27.5C51.7773 40.8866 40.8866 51.7773 27.5 51.7773ZM43.0563 20.9261L33.3055 19.5092L28.9448 10.6735C28.6735 10.1235 28.1133 9.77539 27.5 9.77539C26.8867 9.77539 26.3265 10.1235 26.0551 10.6737L21.6944 19.5093L11.9436 20.9262C11.3367 21.0144 10.8323 21.4396 10.6428 22.0229C10.4533 22.6062 10.6115 23.2465 11.0506 23.6746L18.1064 30.5522L16.4407 40.2635C16.337 40.868 16.5855 41.479 17.0817 41.8395C17.578 42.2 18.2357 42.2476 18.7786 41.9622L27.5 37.3771L36.2214 41.9622C36.7687 42.2499 37.4261 42.1973 37.9183 41.8395C38.4145 41.479 38.6631 40.8681 38.5594 40.2635L36.8937 30.5522L43.9494 23.6746C44.3887 23.2465 44.5468 22.6062 44.3572 22.0229C44.1676 21.4396 43.6633 21.0144 43.0563 20.9261ZM34.0376 28.8358C33.6577 29.206 33.4845 29.7393 33.5742 30.262L34.8311 37.5904L28.2498 34.1304C28.0151 34.007 27.7575 33.9453 27.5 33.9453C27.2425 33.9453 26.9849 34.007 26.7502 34.1304L20.1689 37.5904L21.4258 30.262C21.5154 29.7393 21.3421 29.206 20.9624 28.8358L15.638 23.6458L22.9962 22.5766C23.521 22.5004 23.9747 22.1708 24.2095 21.6951L27.5 15.0276L30.7907 21.6951C31.0254 22.1707 31.479 22.5004 32.0039 22.5766L39.362 23.6458L34.0376 28.8358Z" fill="#A5B553"/>
</svg>
