<svg width="75" height="75" viewBox="0 0 75 75" fill="none" xmlns="http://www.w3.org/2000/svg">
<g clip-path="url(#clip0)">
<path d="M75 37.5C75 47.3763 71.1038 56.854 64.1575 63.8747C57.2112 70.8955 47.7757 74.8925 37.8999 74.9979C28.0241 75.1032 18.5055 71.3083 11.411 64.4372C4.31659 57.5662 0.219165 48.1738 0.00853888 38.2997C-0.202087 28.4256 3.49109 18.8671 10.2861 11.6998C17.0811 4.53244 26.4292 0.335088 36.3005 0.0191792C46.1718 -0.29673 55.7692 3.29431 63.0086 10.0125C70.2479 16.7307 74.5447 26.0335 74.9659 35.9009" fill="#1A2B05"/>
<path d="M71.25 37.5C71.25 46.3887 67.7434 54.9186 61.4918 61.2373C55.2401 67.556 46.7481 71.1533 37.8599 71.2481C28.9717 71.3429 20.4049 67.9275 14.0199 61.7435C7.63493 55.5596 3.94725 47.1065 3.75769 38.2198C3.56812 29.3331 6.89198 20.7304 13.0075 14.2798C19.123 7.82921 27.5363 4.05159 36.4205 3.76727C45.3046 3.48296 53.9423 6.71489 60.4577 12.7612C66.9732 18.8076 70.8403 27.1802 71.2193 36.0608" fill="#ABB868"/>
<path d="M37.5 31.396C35.8819 31.396 34.5703 32.7076 34.5703 34.3257V53.1918C34.5703 54.8099 35.8819 56.1215 37.5 56.1215C39.1181 56.1215 40.4297 54.8098 40.4297 53.1917V34.3257C40.4297 32.7076 39.1181 31.396 37.5 31.396Z" fill="#1A2B05"/>
<path d="M41.4551 23.8535C41.4551 24.9025 41.0384 25.9085 40.2967 26.6502C39.5549 27.3919 38.549 27.8086 37.5 27.8086C36.451 27.8086 35.4451 27.3919 34.7033 26.6502C33.9616 25.9085 33.5449 24.9025 33.5449 23.8535C33.5449 22.8046 33.9616 21.7986 34.7033 21.0569C35.4451 20.3151 36.451 19.8984 37.5 19.8984C38.549 19.8984 39.5549 20.3151 40.2967 21.0569C41.0384 21.7986 41.4551 22.8046 41.4551 23.8535Z" fill="#1A2B05"/>
</g>
<defs>
<clipPath id="clip0">
<rect width="75" height="75" fill="white"/>
</clipPath>
</defs>
</svg>
