<svg width="80" height="80" viewBox="0 0 80 80" fill="none" xmlns="http://www.w3.org/2000/svg">
<path d="M80 40C80 50.6068 75.7872 60.7794 68.288 68.2805C60.7889 75.7817 50.6175 79.9972 40.0106 80C29.4038 80.0028 19.2302 75.7927 11.727 68.2956C4.22388 60.7984 0.00565189 50.6281 5.6754e-06 40.0213C-0.00564051 29.4145 4.20176 19.2397 11.6969 11.7346C19.1921 4.22942 29.3613 0.00848136 39.9681 1.27661e-05C50.5749 -0.00845534 60.7508 4.19624 68.2579 11.6894C75.765 19.1826 79.9887 29.3506 80 39.9574" fill="#1A2B05"/>
<path d="M76 40C76 49.5461 72.2085 58.7014 65.4592 65.4525C58.71 72.2035 49.5557 75.9975 40.0096 76C30.4634 76.0025 21.3071 72.2134 14.5543 65.466C7.80149 58.7186 4.00509 49.5653 4.00001 40.0192C3.99492 30.473 7.78158 21.3157 14.5272 14.5611C21.2729 7.80647 30.4251 4.00763 39.9713 4.00001C49.5174 3.99239 58.6757 7.77661 65.4321 14.5205C72.1885 21.2643 75.9898 30.4155 76 39.9617" fill="#A5B553"/>
<path d="M29.3133 26.9967C28.6249 26.3077 27.5081 26.3077 26.8197 26.9967C24.2638 29.5526 23.0076 33.113 23.3727 36.7658C23.4637 37.6758 24.2303 38.3541 25.1256 38.3541C25.1844 38.3541 25.2437 38.3511 25.3025 38.3452C26.2719 38.2483 26.979 37.3835 26.8821 36.4148C26.6222 33.8189 27.5087 31.2949 29.3133 29.4902C30.0022 28.8019 30.0022 27.685 29.3133 26.9967Z" fill="#1A2B05"/>
<path d="M36.2967 16.1342C25.1791 16.1342 16.1342 25.1791 16.1342 36.2967C16.1342 47.4143 25.1791 56.4592 36.2967 56.4592C47.4143 56.4592 56.4592 47.4143 56.4592 36.2967C56.4592 25.1791 47.4143 16.1342 36.2967 16.1342ZM36.2967 52.9322C27.1237 52.9322 19.6612 45.4697 19.6612 36.2967C19.6612 27.1237 27.1237 19.6612 36.2967 19.6612C45.4692 19.6612 52.9322 27.1237 52.9322 36.2967C52.9322 45.4697 45.4698 52.9322 36.2967 52.9322Z" fill="#1A2B05"/>
<path d="M63.3491 60.8555L50.5344 48.0409C49.8455 47.352 48.7298 47.352 48.0408 48.0409C47.3519 48.7293 47.3519 49.8461 48.0408 50.5345L60.8555 63.3491C61.2 63.6936 61.6508 63.8658 62.1023 63.8658C62.5538 63.8658 63.0047 63.6936 63.3491 63.3491C64.038 62.6608 64.038 61.5439 63.3491 60.8555Z" fill="#1A2B05"/>
</svg>
