<svg width="79" height="79" viewBox="0 0 79 79" fill="none" xmlns="http://www.w3.org/2000/svg">
<path d="M74.4857 39.2313C74.4857 48.6367 70.7501 57.6571 64.1003 64.3086C57.4506 70.9601 48.4312 74.6982 39.0258 74.7007C29.6203 74.7032 20.599 70.9699 13.9457 64.3219C7.2924 57.674 3.55195 48.6556 3.54694 39.2502C3.54193 29.8447 7.27278 20.8224 13.919 14.1673C20.5652 7.51227 29.5826 3.76942 38.988 3.76191C48.3934 3.7544 57.4168 7.48285 64.0736 14.1273C70.7304 20.7717 74.4757 29.7881 74.4857 39.1935" fill="#A5B553"/>
<path d="M39.5 0C17.7505 0 0 17.7517 0 39.5C0 61.2495 17.7519 79 39.5 79C61.2497 79 79 61.2483 79 39.5C79 17.7503 61.2483 0 39.5 0ZM39.5 74.3711C20.272 74.3711 4.62891 58.728 4.62891 39.5C4.62891 20.272 20.272 4.62891 39.5 4.62891C58.728 4.62891 74.3711 20.272 74.3711 39.5C74.3711 58.728 58.728 74.3711 39.5 74.3711ZM61.8445 30.0575L47.8388 28.0223L41.5753 15.3311C41.1855 14.5411 40.3809 14.041 39.5 14.041C38.6191 14.041 37.8145 14.5411 37.4246 15.3312L31.161 28.0225L17.1553 30.0576C16.2836 30.1843 15.5591 30.795 15.287 31.6329C15.0148 32.4707 15.2419 33.3905 15.8727 34.0053L26.0074 43.884L23.6148 57.8331C23.4659 58.7013 23.8228 59.579 24.5355 60.0968C25.2484 60.6146 26.1931 60.683 26.9729 60.273L39.5 53.6871L52.0271 60.273C52.8132 60.6862 53.7575 60.6106 54.4645 60.0968C55.1772 59.579 55.5342 58.7015 55.3853 57.8331L52.9928 43.884L63.1273 34.0053C63.7582 33.3905 63.9854 32.4707 63.713 31.6329C63.4407 30.795 62.7164 30.1843 61.8445 30.0575ZM48.8904 41.4187C48.3448 41.9504 48.0959 42.7165 48.2247 43.4673L50.0301 53.9934L40.577 49.0237C40.2399 48.8464 39.8699 48.7578 39.5 48.7578C39.1301 48.7578 38.7601 48.8464 38.423 49.0237L28.9699 53.9934L30.7753 43.4673C30.904 42.7165 30.6551 41.9504 30.1096 41.4187L22.4619 33.964L33.0309 32.4283C33.7847 32.3187 34.4364 31.8453 34.7736 31.1621L39.5 21.5851L44.2266 31.1621C44.5637 31.8452 45.2153 32.3187 45.9692 32.4283L56.5381 33.964L48.8904 41.4187Z" fill="#1A2B05"/>
<path d="M50.0301 53.9934L39.5 53.6871L28.9698 53.9934L26.0073 43.884L22.4619 33.964L31.161 28.0225L39.5 21.5851L47.8388 28.0223L56.5381 33.964L52.9928 43.884L50.0301 53.9934Z" fill="#1A2B05"/>
</svg>
